<?xml version="1.0" encoding="UTF-8" standalone="no"?>
<svg
   xmlns:dc="http://purl.org/dc/elements/1.1/"
   xmlns:cc="http://creativecommons.org/ns#"
   xmlns:rdf="http://www.w3.org/1999/02/22-rdf-syntax-ns#"
   xmlns:svg="http://www.w3.org/2000/svg"
   xmlns="http://www.w3.org/2000/svg"
   xmlns:sodipodi="http://sodipodi.sourceforge.net/DTD/sodipodi-0.dtd"
   xmlns:inkscape="http://www.inkscape.org/namespaces/inkscape"
   sodipodi:docname="edjnet_logo_full.svg"
   inkscape:version="1.0 (4035a4fb49, 2020-05-01)"
   version="1.1"
   id="svg4475"
   viewBox="0 0 205.46899 77.160025"
   height="21.776274mm"
   width="57.987915mm">
  <defs
     id="defs4477" />
  <sodipodi:namedview
     fit-margin-bottom="0"
     fit-margin-right="0"
     fit-margin-left="0"
     fit-margin-top="0"
     inkscape:document-rotation="0"
     inkscape:window-maximized="1"
     inkscape:window-y="27"
     inkscape:window-x="0"
     inkscape:window-height="671"
     inkscape:window-width="1366"
     showgrid="false"
     inkscape:current-layer="layer1"
     inkscape:document-units="px"
     inkscape:cy="471.77518"
     inkscape:cx="-350.3689"
     inkscape:zoom="0.35"
     inkscape:pageshadow="2"
     inkscape:pageopacity="0.0"
     borderopacity="1.0"
     bordercolor="#666666"
     pagecolor="#ffffff"
     id="base" />
  <metadata
     id="metadata4480">
    <rdf:RDF>
      <cc:Work
         rdf:about="">
        <dc:format>image/svg+xml</dc:format>
        <dc:type
           rdf:resource="http://purl.org/dc/dcmitype/StillImage" />
        <dc:title></dc:title>
      </cc:Work>
    </rdf:RDF>
  </metadata>
  <g
     transform="translate(-57.26549,-45.210773)"
     id="layer1"
     inkscape:groupmode="layer"
     inkscape:label="Livello 1">
    <g
       id="g235"
       transform="translate(-238.48551,-15.375221)">
      <path
         id="path237"
         d="m 367.135,80.485 h -5.814 v 6.119 h 6.678 v 1.037 h -7.897 v -14.8 h 7.836 v 1.078 h -6.617 v 5.529 h 5.814 z"
         inkscape:connector-curvature="0"
         style="fill:#6f2c91" />
      <path
         id="path239"
         d="m 378.621,72.841 v 10.357 c 0,1.511 -0.403,2.665 -1.209,3.461 -0.807,0.796 -1.856,1.194 -3.151,1.194 -1.267,0 -2.294,-0.398 -3.08,-1.194 -0.786,-0.796 -1.179,-1.95 -1.179,-3.461 V 72.841 h 1.199 v 10.373 c 0,1.161 0.283,2.051 0.849,2.672 0.566,0.621 1.303,0.931 2.211,0.931 0.956,0 1.719,-0.297 2.292,-0.891 0.573,-0.594 0.859,-1.498 0.859,-2.713 V 72.841 Z"
         inkscape:connector-curvature="0"
         style="fill:#6f2c91" />
      <path
         id="path241"
         d="m 382.849,80.942 v 6.698 h -1.22 V 72.852 h 4.249 c 1.328,0 2.344,0.349 3.049,1.045 0.705,0.697 1.057,1.712 1.057,3.045 0,0.785 -0.186,1.484 -0.559,2.097 -0.373,0.612 -0.901,1.064 -1.586,1.355 0.752,0.231 1.292,0.645 1.621,1.242 0.329,0.597 0.493,1.34 0.493,2.229 v 1.394 c 0,0.462 0.044,0.875 0.132,1.242 0.088,0.366 0.237,0.665 0.447,0.896 v 0.244 h -1.25 c -0.21,-0.245 -0.354,-0.584 -0.432,-1.02 -0.078,-0.435 -0.117,-0.897 -0.117,-1.387 v -1.356 c 0,-0.897 -0.227,-1.611 -0.681,-2.141 -0.454,-0.53 -1.077,-0.795 -1.87,-0.795 z m 0,-1.036 h 2.887 c 1.043,0 1.808,-0.266 2.292,-0.798 0.484,-0.532 0.727,-1.255 0.727,-2.17 0,-0.969 -0.237,-1.714 -0.711,-2.236 -0.475,-0.522 -1.196,-0.783 -2.165,-0.783 h -3.029 v 5.987 z"
         inkscape:connector-curvature="0"
         style="fill:#6f2c91" />
      <path
         id="path243"
         d="m 401.897,82.325 c 0,1.796 -0.418,3.166 -1.255,4.111 -0.837,0.945 -1.984,1.418 -3.44,1.418 -1.43,0 -2.553,-0.473 -3.37,-1.418 -0.817,-0.945 -1.225,-2.315 -1.225,-4.111 v -4.147 c 0,-1.796 0.406,-3.169 1.22,-4.122 0.813,-0.952 1.935,-1.428 3.364,-1.428 1.457,0 2.605,0.478 3.446,1.433 0.84,0.956 1.26,2.328 1.26,4.117 z m -1.209,-4.178 c 0,-1.463 -0.302,-2.564 -0.905,-3.303 -0.603,-0.738 -1.467,-1.108 -2.592,-1.108 -1.091,0 -1.928,0.37 -2.511,1.108 -0.583,0.739 -0.874,1.84 -0.874,3.303 v 4.178 c 0,1.484 0.292,2.595 0.874,3.334 0.583,0.739 1.423,1.108 2.521,1.108 1.125,0 1.987,-0.369 2.587,-1.108 0.6,-0.739 0.899,-1.85 0.899,-3.334 v -4.178 z"
         inkscape:connector-curvature="0"
         style="fill:#6f2c91" />
      <path
         id="path245"
         d="m 405.851,81.512 v 6.129 h -1.22 v -14.8 h 4.381 c 1.294,0 2.297,0.396 3.009,1.189 0.711,0.792 1.067,1.839 1.067,3.141 0,1.314 -0.355,2.367 -1.067,3.156 -0.712,0.789 -1.715,1.184 -3.009,1.184 h -3.161 z m 0,-1.068 h 3.161 c 0.949,0 1.66,-0.31 2.134,-0.93 0.475,-0.62 0.711,-1.394 0.711,-2.322 0,-0.942 -0.237,-1.723 -0.711,-2.343 -0.474,-0.62 -1.186,-0.93 -2.134,-0.93 h -3.161 z"
         inkscape:connector-curvature="0"
         style="fill:#6f2c91" />
      <path
         id="path247"
         d="m 422.643,80.485 h -5.814 v 6.119 h 6.677 v 1.037 h -7.897 v -14.8 h 7.836 v 1.078 h -6.617 v 5.529 h 5.814 v 1.037 z"
         inkscape:connector-curvature="0"
         style="fill:#6f2c91" />
      <path
         id="path249"
         d="m 432.391,83.534 h -5.398 l -1.26,4.106 h -1.26 l 4.686,-14.799 h 1.107 l 4.635,14.799 h -1.26 z m -5.053,-1.118 h 4.717 l -2.317,-7.613 h -0.062 z"
         inkscape:connector-curvature="0"
         style="fill:#6f2c91" />
      <path
         id="path251"
         d="m 446.041,87.641 h -1.221 l -6.605,-12.39 -0.062,0.01 v 12.38 h -1.229 v -14.8 h 1.229 l 6.606,12.39 0.061,-0.01 v -12.38 h 1.221 z"
         inkscape:connector-curvature="0"
         style="fill:#6f2c91" />
      <path
         id="path253"
         d="m 295.751,107.625 v -14.8 h 3.628 c 1.539,0 2.795,0.603 3.771,1.809 0.976,1.207 1.464,2.755 1.464,4.646 v 1.911 c 0,1.897 -0.488,3.444 -1.464,4.64 -0.976,1.196 -2.232,1.794 -3.771,1.794 z m 1.22,-13.722 v 12.685 h 2.409 c 1.193,0 2.16,-0.506 2.902,-1.517 0.742,-1.011 1.113,-2.301 1.113,-3.869 v -1.944 c 0,-1.554 -0.371,-2.835 -1.113,-3.843 -0.742,-1.008 -1.709,-1.512 -2.902,-1.512 z"
         inkscape:connector-curvature="0"
         style="fill:#6f2c91" />
      <path
         id="path255"
         d="m 313.671,103.518 h -5.397 l -1.26,4.106 h -1.26 l 4.686,-14.799 h 1.108 l 4.635,14.799 h -1.26 z m -5.052,-1.118 h 4.716 l -2.317,-7.613 h -0.061 z"
         inkscape:connector-curvature="0"
         style="fill:#6f2c91" />
      <path
         id="path257"
         d="m 325.146,93.903 h -4.137 v 13.722 h -1.22 V 93.903 h -4.127 v -1.078 h 9.483 v 1.078 z"
         inkscape:connector-curvature="0"
         style="fill:#6f2c91" />
      <path
         id="path259"
         d="m 333.064,103.518 h -5.397 l -1.26,4.106 h -1.26 l 4.686,-14.799 h 1.108 l 4.635,14.799 h -1.26 z m -5.051,-1.118 h 4.716 l -2.317,-7.613 h -0.061 z"
         inkscape:connector-curvature="0"
         style="fill:#6f2c91" />
      <path
         id="path261"
         d="m 347.213,92.825 h 1.22 v 10.612 c 0,1.355 -0.335,2.427 -1.006,3.217 -0.671,0.79 -1.545,1.184 -2.623,1.184 -1.159,0 -2.077,-0.361 -2.754,-1.083 -0.677,-0.722 -1.003,-1.773 -0.976,-3.156 l 0.02,-0.051 h 1.159 c 0,1.07 0.22,1.88 0.661,2.429 0.44,0.549 1.07,0.823 1.89,0.823 0.698,0 1.274,-0.302 1.728,-0.906 0.454,-0.604 0.681,-1.418 0.681,-2.443 z"
         inkscape:connector-curvature="0"
         style="fill:#6f2c91" />
      <path
         id="path263"
         d="m 360.386,102.309 c 0,1.796 -0.418,3.166 -1.255,4.111 -0.837,0.945 -1.984,1.418 -3.44,1.418 -1.43,0 -2.553,-0.473 -3.37,-1.418 -0.817,-0.945 -1.225,-2.315 -1.225,-4.111 v -4.147 c 0,-1.796 0.406,-3.169 1.22,-4.122 0.813,-0.952 1.935,-1.428 3.364,-1.428 1.457,0 2.605,0.478 3.446,1.433 0.84,0.956 1.26,2.328 1.26,4.117 z m -1.21,-4.178 c 0,-1.463 -0.302,-2.564 -0.905,-3.303 -0.603,-0.738 -1.467,-1.108 -2.592,-1.108 -1.091,0 -1.928,0.37 -2.511,1.108 -0.583,0.739 -0.874,1.84 -0.874,3.303 v 4.178 c 0,1.484 0.292,2.595 0.874,3.334 0.583,0.739 1.423,1.108 2.521,1.108 1.125,0 1.987,-0.369 2.587,-1.108 0.6,-0.739 0.899,-1.85 0.899,-3.334 v -4.178 z"
         inkscape:connector-curvature="0"
         style="fill:#6f2c91" />
      <path
         id="path265"
         d="m 371.465,92.825 v 10.357 c 0,1.511 -0.403,2.665 -1.209,3.461 -0.807,0.796 -1.856,1.194 -3.151,1.194 -1.267,0 -2.294,-0.398 -3.08,-1.194 -0.786,-0.796 -1.179,-1.95 -1.179,-3.461 V 92.825 h 1.199 v 10.373 c 0,1.161 0.283,2.051 0.849,2.672 0.566,0.621 1.303,0.931 2.211,0.931 0.956,0 1.719,-0.297 2.292,-0.891 0.573,-0.594 0.859,-1.498 0.859,-2.713 V 92.825 Z"
         inkscape:connector-curvature="0"
         style="fill:#6f2c91" />
      <path
         id="path267"
         d="m 375.693,100.926 v 6.698 h -1.22 V 92.835 h 4.249 c 1.328,0 2.344,0.349 3.049,1.045 0.705,0.697 1.057,1.712 1.057,3.045 0,0.785 -0.186,1.484 -0.559,2.097 -0.373,0.612 -0.901,1.064 -1.586,1.355 0.752,0.231 1.292,0.645 1.621,1.242 0.329,0.597 0.493,1.34 0.493,2.229 v 1.394 c 0,0.462 0.044,0.875 0.132,1.242 0.088,0.366 0.237,0.665 0.447,0.896 v 0.244 h -1.25 c -0.21,-0.245 -0.354,-0.584 -0.432,-1.02 -0.078,-0.435 -0.117,-0.897 -0.117,-1.387 v -1.356 c 0,-0.897 -0.227,-1.611 -0.681,-2.141 -0.454,-0.53 -1.077,-0.795 -1.87,-0.795 h -3.333 z m 0,-1.036 h 2.887 c 1.043,0 1.808,-0.266 2.292,-0.798 0.484,-0.532 0.727,-1.255 0.727,-2.17 0,-0.969 -0.237,-1.714 -0.711,-2.236 -0.475,-0.522 -1.196,-0.783 -2.165,-0.783 h -3.029 v 5.987 z"
         inkscape:connector-curvature="0"
         style="fill:#6f2c91" />
      <path
         id="path269"
         d="m 395.168,107.625 h -1.22 l -6.606,-12.39 -0.061,0.01 v 12.38 h -1.23 v -14.8 h 1.23 l 6.606,12.39 0.061,-0.01 v -12.38 h 1.22 z"
         inkscape:connector-curvature="0"
         style="fill:#6f2c91" />
      <path
         id="path271"
         d="m 405.292,103.518 h -5.397 l -1.26,4.106 h -1.26 l 4.686,-14.799 h 1.108 l 4.635,14.799 h -1.26 z M 400.24,102.4 h 4.716 l -2.317,-7.613 h -0.061 z"
         inkscape:connector-curvature="0"
         style="fill:#6f2c91" />
      <path
         id="path273"
         d="m 411.055,106.588 h 5.977 v 1.037 h -7.207 v -14.8 h 1.23 z"
         inkscape:connector-curvature="0"
         style="fill:#6f2c91" />
      <path
         id="path275"
         d="m 420.579,107.625 h -1.23 v -14.8 h 1.23 z"
         inkscape:connector-curvature="0"
         style="fill:#6f2c91" />
      <path
         id="path277"
         d="m 430.987,104.007 c 0,-0.809 -0.235,-1.467 -0.706,-1.973 -0.472,-0.507 -1.3,-0.954 -2.486,-1.341 -1.348,-0.413 -2.369,-0.947 -3.064,-1.601 -0.694,-0.654 -1.041,-1.53 -1.041,-2.628 0,-1.131 0.388,-2.056 1.164,-2.774 0.775,-0.718 1.776,-1.078 3.003,-1.078 1.288,0 2.323,0.423 3.104,1.271 0.783,0.847 1.164,1.88 1.145,3.1 l -0.031,0.061 h -1.148 c 0,-0.982 -0.272,-1.787 -0.818,-2.414 -0.545,-0.626 -1.295,-0.94 -2.251,-0.94 -0.929,0 -1.649,0.261 -2.165,0.782 -0.516,0.522 -0.772,1.176 -0.772,1.962 0,0.732 0.249,1.347 0.747,1.845 0.498,0.498 1.344,0.934 2.536,1.306 1.314,0.407 2.312,0.957 2.993,1.652 0.682,0.694 1.021,1.607 1.021,2.739 0,1.186 -0.401,2.126 -1.204,2.82 -0.804,0.695 -1.835,1.042 -3.095,1.042 -1.24,0 -2.32,-0.373 -3.238,-1.118 -0.918,-0.745 -1.359,-1.826 -1.326,-3.242 l 0.021,-0.061 h 1.138 c 0,1.159 0.334,2.013 1.002,2.562 0.668,0.549 1.469,0.823 2.404,0.823 0.921,0 1.663,-0.255 2.226,-0.765 0.559,-0.511 0.841,-1.187 0.841,-2.03 z"
         inkscape:connector-curvature="0"
         style="fill:#6f2c91" />
      <path
         id="path279"
         d="m 436.212,92.825 4.116,12.959 h 0.061 l 4.127,-12.959 h 1.576 v 14.799 h -1.21 v -6.495 l 0.122,-6.048 -0.061,-0.01 -4.178,12.553 h -0.813 l -4.167,-12.533 -0.061,0.01 0.121,6.027 v 6.495 h -1.199 V 92.825 Z"
         inkscape:connector-curvature="0"
         style="fill:#6f2c91" />
      <path
         id="path281"
         d="m 375.378,127.608 h -1.22 l -6.606,-12.391 -0.061,0.011 v 12.38 h -1.23 v -14.799 h 1.23 l 6.606,12.39 0.061,-0.01 v -12.38 h 1.22 z"
         inkscape:connector-curvature="0"
         style="fill:#6f2c91" />
      <path
         id="path283"
         d="m 385.746,120.453 h -5.814 v 6.118 h 6.678 v 1.037 h -7.897 v -14.799 h 7.836 v 1.077 h -6.617 v 5.529 h 5.814 z"
         inkscape:connector-curvature="0"
         style="fill:#6f2c91" />
      <path
         id="path285"
         d="m 397.343,113.886 h -4.137 v 13.722 h -1.22 v -13.722 h -4.127 v -1.077 h 9.483 v 1.077 z"
         inkscape:connector-curvature="0"
         style="fill:#6f2c91" />
      <path
         id="path287"
         d="m 401.856,123.37 0.315,2.002 0.061,0.011 0.417,-2.013 2.48,-10.561 h 1.118 l 2.5,10.561 0.407,2.032 h 0.061 l 0.335,-2.032 2.084,-10.561 h 1.24 l -3.09,14.799 h -1.128 l -2.643,-11.293 -0.285,-1.372 h -0.061 l -0.265,1.372 -2.683,11.293 h -1.128 l -3.08,-14.799 h 1.23 z"
         inkscape:connector-curvature="0"
         style="fill:#6f2c91" />
      <path
         id="path289"
         d="m 423.861,122.292 c 0,1.796 -0.418,3.167 -1.255,4.112 -0.837,0.945 -1.983,1.418 -3.44,1.418 -1.43,0 -2.553,-0.473 -3.37,-1.418 -0.817,-0.945 -1.225,-2.316 -1.225,-4.112 v -4.146 c 0,-1.796 0.406,-3.17 1.22,-4.122 0.813,-0.951 1.935,-1.428 3.364,-1.428 1.458,0 2.606,0.478 3.446,1.434 0.84,0.955 1.26,2.327 1.26,4.116 z m -1.209,-4.177 c 0,-1.464 -0.302,-2.565 -0.904,-3.304 -0.604,-0.738 -1.468,-1.108 -2.592,-1.108 -1.091,0 -1.928,0.37 -2.511,1.108 -0.583,0.738 -0.874,1.84 -0.874,3.304 v 4.177 c 0,1.484 0.292,2.596 0.874,3.334 0.583,0.739 1.423,1.108 2.521,1.108 1.125,0 1.986,-0.369 2.587,-1.108 0.6,-0.738 0.899,-1.85 0.899,-3.334 z"
         inkscape:connector-curvature="0"
         style="fill:#6f2c91" />
      <path
         id="path291"
         d="m 427.795,120.91 v 6.698 h -1.219 v -14.789 h 4.248 c 1.328,0 2.345,0.349 3.05,1.046 0.704,0.697 1.057,1.712 1.057,3.045 0,0.785 -0.187,1.484 -0.559,2.097 -0.373,0.612 -0.901,1.064 -1.586,1.355 0.753,0.23 1.292,0.645 1.621,1.241 0.329,0.598 0.493,1.34 0.493,2.229 v 1.395 c 0,0.462 0.044,0.876 0.133,1.242 0.088,0.366 0.236,0.665 0.447,0.896 v 0.244 h -1.251 c -0.21,-0.244 -0.354,-0.584 -0.433,-1.02 -0.077,-0.435 -0.116,-0.897 -0.116,-1.387 v -1.355 c 0,-0.897 -0.228,-1.611 -0.681,-2.142 -0.455,-0.53 -1.078,-0.795 -1.871,-0.795 z m 0,-1.037 h 2.887 c 1.044,0 1.809,-0.266 2.293,-0.798 0.484,-0.531 0.727,-1.255 0.727,-2.17 0,-0.969 -0.237,-1.714 -0.711,-2.236 -0.475,-0.521 -1.197,-0.782 -2.166,-0.782 h -3.029 v 5.986 z"
         inkscape:connector-curvature="0"
         style="fill:#6f2c91" />
      <path
         id="path293"
         d="m 440.958,120.645 h -1.585 v 6.963 h -1.221 v -14.799 h 1.221 v 6.8 h 1.545 l 4.686,-6.8 h 1.423 l -5.083,7.258 5.449,7.541 h -1.516 z"
         inkscape:connector-curvature="0"
         style="fill:#6f2c91" />
    </g>
    <rect
       id="rect295"
       height="15.822"
       width="47.865002"
       y="56.443806"
       x="214.86948"
       style="fill:#6f2c91" />
    <rect
       id="rect297"
       height="15.82"
       width="31.236"
       y="76.289749"
       x="214.87149"
       style="fill:#a6ce39" />
    <rect
       id="rect299"
       height="15.82"
       width="47.865002"
       y="96.134781"
       x="214.86948"
       style="fill:#6f2c91" />
    <line
       id="line301"
       y2="122.3708"
       x2="214.87149"
       y1="45.210773"
       x1="214.87149"
       stroke-miterlimit="10"
       style="fill:none;stroke:#6f2c91;stroke-width:0.75;stroke-miterlimit:10" />
  </g>
</svg>
